<?xml version="1.0" standalone="no"?>
<svg xmlns="http://www.w3.org/2000/svg" viewBox="0 0 164.52800000000002 53" width="164.52800000000002" height="53"><rect fill="none" stroke="#d6ad60" stroke-width="3" width="161.52800000000002" height="50" x="1.5" y="1.5"></rect><g fill="#d6ad60" color="#d6ad60" transform="translate(12, 12.001) scale(0.29)"><svg width="100.0" height="100.0" x="0.0" y="0.0" viewBox="0 0 100 100"><title></title><g data-name="Group"><path data-name="Compound Path" d="M79.5,11.5H20.5L3.4,39,50,88.5,96.6,39Zm-3.3,6L87.5,35.6H70.9L67,17.5ZM39,17.5H60.9l3.9,18.1H35.4Zm-15.2,0h9.1L29.3,35.6H12.5ZM14.1,41.6H29.7L41.3,70.5ZM50,76,36.2,41.6H63.9Zm8.7-5.5L70.3,41.6H85.9Z"></path></g></svg></g><line x1="51.5" y1="0" x2="51.5" y2="100%" stroke="#d6ad60" stroke-width="3"></line><path fill="#d6ad60" fill-rule="nonzero" d="M7.85 16.94L0.10 16.94Q0 16.94 0 16.82L0 16.82L0.02 0.34Q0.02 0.24 0.12 0.24L0.12 0.24L7.82 0.24Q7.92 0.24 7.92 0.36L7.92 0.36L7.92 3.05Q7.92 3.14 7.82 3.14L7.82 3.14L2.90 3.14L2.90 6.89L7.82 6.89Q7.92 6.89 7.92 6.98L7.92 6.98L7.94 9.70Q7.94 9.79 7.85 9.79L7.85 9.79L2.90 9.79L2.90 13.99L7.85 13.99Q7.94 13.99 7.94 14.11L7.94 14.11L7.94 16.85Q7.94 16.94 7.85 16.94L7.85 16.94ZM14.50 16.92L10.20 16.94Q10.08 16.94 10.08 16.82L10.08 16.82L10.13 0.34Q10.13 0.24 10.22 0.24L10.22 0.24L14.71 0.22Q16.03 0.19 17.12 0.84Q18.22 1.49 18.86 2.58Q19.51 3.67 19.51 4.99L19.51 4.99L19.51 11.88Q19.51 13.27 18.84 14.41Q18.17 15.55 17.04 16.22Q15.91 16.90 14.50 16.92L14.50 16.92ZM13.03 3.12L13.01 13.99L14.50 13.99Q15.38 13.99 16.00 13.37Q16.61 12.74 16.61 11.88L16.61 11.88L16.61 4.97Q16.61 4.20 16.04 3.64Q15.48 3.07 14.71 3.10L14.71 3.10L13.03 3.12ZM29.26 16.94L21.50 16.94Q21.41 16.94 21.41 16.82L21.41 16.82L21.43 0.34Q21.43 0.24 21.53 0.24L21.53 0.24L29.23 0.24Q29.33 0.24 29.33 0.36L29.33 0.36L29.33 3.05Q29.33 3.14 29.23 3.14L29.23 3.14L24.31 3.14L24.31 6.89L29.23 6.89Q29.33 6.89 29.33 6.98L29.33 6.98L29.35 9.70Q29.35 9.79 29.26 9.79L29.26 9.79L24.31 9.79L24.31 13.99L29.26 13.99Q29.35 13.99 29.35 14.11L29.35 14.11L29.35 16.85Q29.35 16.94 29.26 16.94L29.26 16.94ZM39.34 16.94L31.58 16.94Q31.49 16.94 31.49 16.82L31.49 16.82L31.51 0.36Q31.51 0.24 31.63 0.24L31.63 0.24L34.30 0.24Q34.42 0.24 34.42 0.36L34.42 0.36L34.39 13.99L39.34 13.99Q39.46 13.99 39.46 14.11L39.46 14.11L39.46 16.82Q39.46 16.94 39.34 16.94L39.34 16.94ZM44.50 17.18L44.50 17.18Q43.20 17.18 42.13 16.52Q41.06 15.86 40.43 14.77Q39.79 13.68 39.79 12.36L39.79 12.36L39.79 11.26Q39.79 11.14 39.91 11.14L39.91 11.14L42.60 11.14Q42.70 11.14 42.70 11.26L42.70 11.26L42.70 12.36Q42.70 13.15 43.22 13.72Q43.75 14.28 44.50 14.28L44.50 14.28Q45.24 14.28 45.77 13.70Q46.30 13.13 46.30 12.36L46.30 12.36Q46.30 11.47 45.14 10.82L45.14 10.82Q44.76 10.61 43.94 10.15Q43.13 9.70 42.41 9.29L42.41 9.29Q41.09 8.52 40.45 7.36Q39.82 6.19 39.82 4.73L39.82 4.73Q39.82 3.38 40.46 2.32Q41.11 1.25 42.18 0.62Q43.25 0 44.50 0L44.50 0Q45.77 0 46.84 0.64Q47.90 1.27 48.54 2.34Q49.18 3.41 49.18 4.73L49.18 4.73L49.18 6.70Q49.18 6.79 49.08 6.79L49.08 6.79L46.39 6.79Q46.30 6.79 46.30 6.70L46.30 6.70L46.27 4.73Q46.27 3.89 45.74 3.36Q45.22 2.83 44.50 2.83L44.50 2.83Q43.75 2.83 43.22 3.40Q42.70 3.96 42.70 4.73L42.70 4.73Q42.70 5.52 43.03 6.05Q43.37 6.58 44.26 7.06L44.26 7.06Q44.38 7.13 44.72 7.31Q45.07 7.49 45.48 7.72Q45.89 7.94 46.21 8.11Q46.54 8.28 46.61 8.33L46.61 8.33Q47.81 9 48.50 9.97Q49.20 10.94 49.20 12.36L49.20 12.36Q49.20 13.73 48.56 14.82Q47.93 15.91 46.86 16.55Q45.79 17.18 44.50 17.18ZM55.87 16.94L53.16 16.94Q53.06 16.94 53.06 16.82L53.06 16.82L53.06 3.14L49.94 3.14Q49.82 3.14 49.82 3.02L49.82 3.02L49.85 0.34Q49.85 0.24 49.94 0.24L49.94 0.24L59.06 0.24Q59.18 0.24 59.18 0.34L59.18 0.34L59.18 3.02Q59.18 3.14 59.09 3.14L59.09 3.14L55.94 3.14L55.97 16.82Q55.97 16.94 55.87 16.94L55.87 16.94ZM68.21 16.94L60.46 16.94Q60.36 16.94 60.36 16.82L60.36 16.82L60.38 0.34Q60.38 0.24 60.48 0.24L60.48 0.24L68.18 0.24Q68.28 0.24 68.28 0.36L68.28 0.36L68.28 3.05Q68.28 3.14 68.18 3.14L68.18 3.14L63.26 3.14L63.26 6.89L68.18 6.89Q68.28 6.89 68.28 6.98L68.28 6.98L68.30 9.70Q68.30 9.79 68.21 9.79L68.21 9.79L63.26 9.79L63.26 13.99L68.21 13.99Q68.30 13.99 68.30 14.11L68.30 14.11L68.30 16.85Q68.30 16.94 68.21 16.94L68.21 16.94ZM73.27 16.94L70.56 16.94Q70.44 16.94 70.44 16.82L70.44 16.82L70.46 0.34Q70.46 0.24 70.56 0.24L70.56 0.24L73.25 0.24Q73.34 0.24 73.34 0.34L73.34 0.34L73.37 16.82Q73.37 16.94 73.27 16.94L73.27 16.94ZM78.10 16.94L75.70 16.94Q75.50 16.94 75.50 16.78L75.50 16.78L75.48 0.43Q75.48 0.24 75.67 0.24L75.67 0.24L77.83 0.24L81.89 9.70L81.77 0.43Q81.77 0.24 81.98 0.24L81.98 0.24L84.36 0.24Q84.50 0.24 84.50 0.43L84.50 0.43L84.53 16.80Q84.53 16.94 84.41 16.94L84.41 16.94L82.30 16.94L78.14 8.11L78.31 16.75Q78.31 16.94 78.10 16.94L78.10 16.94Z" transform="translate(65 18.028)"></path></svg>